<svg xmlns="http://www.w3.org/2000/svg" width="256" height="256" viewBox="0 0 256 256" version="1.1"><path d="M 116.251 14.040 C 98.992 17.141, 81.425 30.263, 73.521 45.959 C 68.457 56.015, 66.708 63.174, 66.674 74 C 66.615 92.337, 71.691 104.755, 84.545 117.728 C 96.908 130.203, 110.693 136, 128 136 C 138.164 136, 145.817 134.202, 155.901 129.446 C 170.584 122.520, 184.275 105.310, 188.075 89 C 189.914 81.106, 189.657 65.738, 187.565 58.560 C 181.779 38.709, 167.048 22.989, 148.031 16.376 C 139.969 13.572, 124.986 12.471, 116.251 14.040 M 116.102 31.583 C 94.297 37.447, 80.290 59.394, 83.921 82.009 C 88.610 111.219, 120.908 127.740, 147.566 114.565 C 169.821 103.566, 178.713 78.079, 168.162 55.532 C 159.096 36.158, 136.959 25.975, 116.102 31.583 M 70.479 138.816 C 61.395 143.067, 51.019 159.211, 47.027 175.306 C 45.100 183.073, 44.881 186.255, 45.172 202.306 C 45.460 218.268, 45.759 221.058, 47.606 225.051 C 50.684 231.704, 55.381 236.549, 61.818 239.710 L 67.500 242.500 128 242.500 C 187.404 242.500, 188.582 242.462, 193.051 240.394 C 199.704 237.316, 204.549 232.619, 207.710 226.182 C 210.403 220.697, 210.511 219.868, 210.829 202.306 C 211.119 186.256, 210.900 183.073, 208.973 175.306 C 204.815 158.542, 193.841 142.014, 184.500 138.447 C 178.548 136.174, 174.683 136.909, 163.433 142.456 C 149.845 149.155, 143.921 150.500, 128 150.500 C 112.035 150.500, 106.162 149.159, 92.383 142.365 C 81.444 136.972, 76.226 136.126, 70.479 138.816 M 73.685 158.250 C 69.168 163.817, 65.523 171.195, 63.574 178.716 C 61.293 187.515, 61.336 216.068, 63.636 219.960 C 67.322 226.200, 65.189 226, 128 226 C 190.811 226, 188.678 226.200, 192.364 219.960 C 194.671 216.056, 194.706 187.524, 192.415 178.644 C 189.981 169.210, 181.273 154, 178.306 154 C 177.968 154, 174.949 155.516, 171.596 157.369 C 159.230 164.203, 145.279 167.419, 128 167.419 C 110.721 167.419, 96.770 164.203, 84.404 157.369 C 81.051 155.516, 78.044 154, 77.721 154 C 77.398 154, 75.582 155.912, 73.685 158.250" stroke="none" fill="#fc3c04" fill-rule="evenodd"/></svg>