<svg xmlns="http://www.w3.org/2000/svg" width="256" height="256" viewBox="0 0 256 256" version="1.1"><path d="M 184.500 2.069 C 181.623 3.200, 164.431 15.069, 144.017 30.017 C 124.501 44.308, 108.189 56, 107.767 56 C 107.345 56, 107.024 88.287, 107.054 127.750 L 107.108 199.500 141.599 224.500 C 160.570 238.250, 178.608 250.839, 181.685 252.475 C 197.775 261.032, 218.688 253.609, 226.693 236.500 L 229.500 230.500 229.500 128 L 229.500 25.500 226.693 19.500 C 219.245 3.583, 200.428 -4.191, 184.500 2.069 M 50.500 61.399 C 43.894 63.488, 40.727 65.538, 35.391 71.180 C 26.562 80.515, 26.500 80.913, 26.500 128 C 26.500 175.380, 26.519 175.499, 35.720 185.145 C 44.801 194.665, 47.530 195.442, 73.250 195.820 L 95 196.140 95 128.070 L 95 60 74.750 60.067 C 61.374 60.111, 53.142 60.563, 50.500 61.399" stroke="none" fill="#844404" fill-rule="evenodd"/></svg>