<svg xmlns="http://www.w3.org/2000/svg" width="500" height="500" viewBox="0 0 500 500" version="1.1"><path d="M 219.331 2.474 C 171.909 8.851, 133.672 24.952, 95 54.825 C 83.344 63.830, 61.030 86.460, 52.217 98.214 C 32.201 124.912, 17.735 153.171, 9.965 180.753 C -5.674 236.270, -2.199 296.608, 19.577 347.619 C 51.615 422.674, 121.151 480.096, 198.500 495.371 C 220.523 499.721, 227.341 500.242, 255.835 499.753 C 284.951 499.254, 296.712 497.665, 320.157 491.060 C 358.366 480.297, 395.975 457.904, 426.071 428 C 461.260 393.034, 484.535 351.098, 494.492 304.718 C 499.776 280.105, 502.259 247.626, 500.036 232.193 C 499.506 228.512, 498.351 220.325, 497.468 214 C 492.047 175.131, 477.548 139.225, 453.658 105.500 C 437.556 82.771, 412.617 58.581, 389.500 43.269 C 357.201 21.875, 328.224 10.300, 291 3.924 C 274.902 1.166, 235.052 0.360, 219.331 2.474 M 236 115.624 C 200.087 120.197, 171.153 135.244, 148.156 161.309 C 135.726 175.398, 127.051 190.421, 121.539 207.404 C 116.337 223.434, 115.500 229.479, 115.500 251 C 115.500 267.735, 115.830 271.989, 117.826 281 C 123.483 306.536, 135.223 327.418, 154.932 347 C 174.661 366.602, 194.981 377.696, 222.053 383.644 C 228.793 385.125, 234.643 385.494, 251 385.469 C 269.796 385.440, 272.377 385.217, 282.044 382.787 C 299.866 378.309, 310.316 373.809, 324.500 364.507 C 349.960 347.809, 370.672 320.953, 379.320 293.426 C 392.078 252.814, 386.071 209.511, 362.823 174.500 C 355.273 163.131, 337.649 145.675, 326 138.029 C 302.008 122.280, 282.880 116.268, 254.500 115.555 C 246.250 115.348, 237.925 115.379, 236 115.624 M 0.395 250.500 C 0.396 258.200, 0.553 261.218, 0.743 257.206 C 0.934 253.195, 0.932 246.895, 0.741 243.206 C 0.549 239.518, 0.393 242.800, 0.395 250.500" stroke="none" fill="#f3531c" fill-rule="evenodd"/></svg>