<svg xmlns="http://www.w3.org/2000/svg" width="256" height="256" viewBox="0 0 256 256" version="1.1"><path d="M 49 8.065 C 42.508 10.982, 11.632 41.735, 8.405 48.500 C 5.598 54.384, 5.373 59.775, 7.653 66.572 C 9.099 70.885, 12.802 75.023, 37.348 99.750 L 65.392 128 37.348 156.250 C 12.802 180.977, 9.099 185.115, 7.653 189.428 C 3.321 202.346, 5.591 206.965, 26.793 228.355 C 48.416 250.169, 53.508 252.728, 66.572 248.347 C 70.885 246.901, 75.022 243.198, 99.743 218.659 L 127.986 190.622 156.243 218.647 C 180.917 243.119, 185.125 246.883, 189.428 248.336 C 202.472 252.740, 207.580 250.174, 229.207 228.355 C 250.413 206.960, 252.691 202.326, 248.336 189.428 C 246.883 185.125, 243.120 180.918, 218.654 156.250 L 190.636 128 218.654 99.750 C 243.120 75.082, 246.883 70.875, 248.336 66.572 C 252.740 53.528, 250.174 48.420, 228.355 26.793 C 206.960 5.587, 202.326 3.309, 189.428 7.664 C 185.125 9.117, 180.917 12.881, 156.243 37.353 L 127.986 65.378 99.743 37.341 C 75.022 12.802, 70.885 9.099, 66.572 7.653 C 60.054 5.467, 54.494 5.597, 49 8.065" stroke="none" fill="#04a4fc" fill-rule="evenodd"/></svg>