<svg xmlns="http://www.w3.org/2000/svg" width="256" height="256" viewBox="0 0 256 256" version="1.1"><path d="M 52.500 10.358 C 49.750 11.645, 45.658 14.704, 43.406 17.157 C 35.446 25.829, 35.906 19.005, 36.220 123.664 L 36.500 216.829 39.500 221.042 C 41.150 223.359, 44.456 226.660, 46.847 228.378 L 51.195 231.500 107.556 231.782 L 163.917 232.063 164.209 239.782 C 164.496 247.400, 164.536 247.504, 167.284 247.820 C 169.223 248.042, 171.573 247.058, 175.034 244.571 L 180 241.003 184.966 244.571 C 188.427 247.058, 190.777 248.042, 192.716 247.820 C 195.465 247.504, 195.504 247.402, 195.792 239.750 L 196.084 232 206.842 232 C 213.876 232, 218.015 231.585, 218.800 230.800 C 220.542 229.058, 220.542 10.942, 218.800 9.200 C 217.886 8.286, 198.489 8.002, 137.550 8.010 L 57.500 8.020 52.500 10.358 M 58.539 17.466 C 51.785 19.279, 46.635 24.812, 45.118 31.884 C 44.349 35.469, 44 60.826, 44 113.033 L 44 188.968 48.250 186.734 L 52.500 184.500 132.250 184.232 L 212 183.965 212 99.982 L 212 16 137.750 16.067 C 79.250 16.121, 62.448 16.417, 58.539 17.466 M 60.430 25.322 C 60.124 26.119, 60.015 28.735, 60.187 31.136 C 60.493 35.397, 60.582 35.500, 64 35.500 L 67.500 35.500 67.500 30 C 67.500 24.523, 67.486 24.499, 64.243 24.186 C 62.096 23.979, 60.797 24.366, 60.430 25.322 M 60.483 45.186 C 60.207 45.909, 60.097 71.025, 60.240 101 L 60.500 155.500 64 155.500 L 67.500 155.500 67.500 100 L 67.500 44.500 64.243 44.186 C 62.230 43.992, 60.794 44.374, 60.483 45.186 M 100.802 57.750 C 98.868 59.995, 80 105.378, 80 107.785 C 80 110.045, 81.876 112, 84.045 112 C 86.458 112, 88.429 109.280, 91.108 102.250 L 93.490 96 104 96 L 114.510 96 116.892 102.250 C 119.571 109.280, 121.542 112, 123.955 112 C 126.124 112, 128 110.045, 128 107.785 C 128 105.378, 109.132 59.995, 107.198 57.750 C 106.368 56.788, 104.930 56, 104 56 C 103.070 56, 101.632 56.788, 100.802 57.750 M 157.221 57.179 C 156.550 57.850, 156 59.120, 156 60 C 156 63.433, 158.156 64, 171.212 64 L 184.023 64 169.952 85.072 C 159.150 101.247, 155.953 106.766, 156.190 108.822 L 156.500 111.500 175.391 111.500 C 192.295 111.500, 194.398 111.316, 195.386 109.750 C 196.190 108.475, 196.191 107.525, 195.388 106.250 C 194.445 104.753, 192.383 104.460, 181.151 104.221 L 168.015 103.942 182.067 82.899 C 192.853 66.747, 196.047 61.234, 195.810 59.178 L 195.500 56.500 176.971 56.229 C 163.403 56.030, 158.116 56.284, 157.221 57.179 M 100.258 80.500 L 97.127 88 104 88 L 110.873 88 107.742 80.500 C 106.020 76.375, 104.336 73, 104 73 C 103.664 73, 101.980 76.375, 100.258 80.500 M 132.404 81.390 C 132.095 82.195, 131.990 83.900, 132.171 85.177 C 132.489 87.421, 132.821 87.500, 142 87.500 L 151.500 87.500 151.500 84 L 151.500 80.500 142.233 80.212 C 134.827 79.982, 132.853 80.219, 132.404 81.390 M 60.430 165.322 C 60.124 166.119, 60.015 168.735, 60.187 171.136 C 60.493 175.397, 60.582 175.500, 64 175.500 L 67.500 175.500 67.500 170 C 67.500 164.523, 67.486 164.499, 64.243 164.186 C 62.096 163.979, 60.797 164.366, 60.430 165.322 M 56.395 192.946 C 46.322 195.353, 41.725 206.401, 46.938 215.677 C 51.527 223.840, 48.608 223.463, 109.750 223.791 L 164 224.081 164 218.051 L 164 212.021 120.859 211.761 C 81.026 211.520, 77.633 211.366, 76.614 209.750 C 75.809 208.474, 75.809 207.526, 76.614 206.250 C 77.645 204.616, 82.165 204.483, 144.859 204.243 L 212 203.986 212 197.993 L 212 192 135.750 192.102 C 93.813 192.159, 58.103 192.538, 56.395 192.946 M 52.406 205.383 C 52.096 206.192, 51.990 207.900, 52.171 209.177 C 52.482 211.372, 52.914 211.500, 60 211.500 L 67.500 211.500 67.500 208 L 67.500 204.500 60.236 204.206 C 54.568 203.976, 52.847 204.235, 52.406 205.383 M 172 224.068 L 172 236.136 174.904 234.068 C 176.502 232.931, 178.795 232, 180 232 C 181.205 232, 183.498 232.931, 185.096 234.068 L 188 236.136 188 224.068 L 188 212 180 212 L 172 212 172 224.068 M 196 218 L 196 224 204 224 L 212 224 212 218 L 212 212 204 212 L 196 212 196 218" stroke="none" fill="#fc3404" fill-rule="evenodd"/></svg>