<svg xmlns="http://www.w3.org/2000/svg" width="256" height="256" viewBox="0 0 256 256" version="1.1"><path d="M 194.994 0.934 C 189.065 2.738, 184.816 6.040, 171.271 19.373 L 156.919 33.500 189.761 66.296 L 222.603 99.092 236.704 84.697 C 244.460 76.780, 251.823 68.322, 253.068 65.901 C 254.629 62.867, 255.473 59.127, 255.788 53.857 C 256.502 41.905, 254.172 37.789, 236.708 20.145 C 219.827 3.091, 214.701 -0.053, 204 0.087 C 200.425 0.134, 196.372 0.515, 194.994 0.934 M 84.355 106.691 C 49.875 141.622, 23.228 169.415, 21.738 172 C 17.514 179.328, 0.010 238.001, 0.004 244.850 C 0.001 248.466, 0.573 249.773, 3.400 252.600 C 6.108 255.308, 7.596 256, 10.713 256 C 12.866 256, 27.648 252.214, 43.563 247.586 C 77.565 237.699, 79.986 236.866, 85.957 233.005 C 88.456 231.390, 117.274 203.278, 149.997 170.534 L 209.495 110.999 176.937 78.441 L 144.379 45.882 84.355 106.691 M 112.169 228.993 C 107.805 230.025, 103.230 234.501, 101.858 239.080 C 100.381 244.008, 102.082 248.987, 106.596 252.950 L 110.070 256 179.152 256 L 248.235 256 252.118 252.118 C 255.708 248.527, 256 247.812, 256 242.603 C 256 237.641, 255.613 236.550, 252.750 233.432 C 250.692 231.192, 248.033 229.556, 245.500 228.971 C 240.651 227.852, 116.908 227.872, 112.169 228.993" stroke="none" fill="#fc9c04" fill-rule="evenodd"/></svg>