<svg xmlns="http://www.w3.org/2000/svg" width="512" height="512" viewBox="0 0 512 512" version="1.1"><path d="M 233 0.620 C 199.053 4.700, 174.233 11.469, 147.972 23.811 C 93.977 49.188, 49.188 93.977, 23.811 147.972 C 13.763 169.353, 6.162 194.294, 2.470 218 C -0.131 234.695, -0.617 267.860, 1.485 285.148 C 4.311 308.385, 9.952 331.022, 18.145 352 C 45.164 421.187, 100.182 477.276, 165.966 502.701 C 176.399 506.733, 192.906 512, 195.112 512 C 195.615 512, 196 493.598, 196 469.500 C 196 446.125, 195.662 427.015, 195.250 427.033 C 194.838 427.051, 191.350 427.476, 187.500 427.977 C 169.698 430.296, 149.536 423.004, 137.468 409.882 C 135.251 407.472, 130.596 401.346, 127.123 396.269 C 118.340 383.431, 110.351 377, 103.187 377 L 100.295 377 99.636 368.250 C 99.274 363.438, 98.688 356.616, 98.334 353.091 L 97.691 346.683 103.825 347.324 C 121.727 349.195, 137.792 359.873, 149.980 378 C 157.183 388.715, 160.695 392.513, 166.232 395.581 C 171.044 398.247, 172.323 398.496, 181 398.449 C 191.914 398.391, 198 396.466, 198 393.072 C 198 388.258, 202.601 377.717, 208.525 368.963 C 212.026 363.790, 214.795 359.461, 214.678 359.345 C 214.562 359.228, 209.749 358.180, 203.983 357.016 C 150.209 346.156, 114.525 313.361, 106.517 267.439 C 101.176 236.808, 108.676 201.926, 125.516 179.077 C 128.120 175.545, 130.243 171.720, 130.234 170.577 C 130.225 169.435, 129.426 165.575, 128.457 162 C 127.245 157.524, 126.674 151.607, 126.624 143 C 126.551 130.452, 127.276 125.507, 131.102 112.461 L 133.166 105.421 142.333 106.715 C 156.803 108.756, 165.299 112.250, 187.354 125.225 L 199.207 132.199 208.354 130.154 C 244.996 121.962, 267.007 121.963, 303.654 130.156 L 312.809 132.202 323.154 126.159 C 338.687 117.086, 355.707 109.265, 362.500 108.081 C 365.800 107.505, 370.815 106.651, 373.645 106.182 L 378.789 105.329 380.939 112.415 C 386.265 129.962, 387.001 148.446, 382.995 164.018 L 381.209 170.964 384.407 176.232 C 386.166 179.129, 388.769 183.324, 390.191 185.553 C 408.770 214.679, 413.045 248.951, 402.117 281.180 C 388.526 321.264, 356.251 347.275, 308.017 357.016 C 302.251 358.180, 297.429 359.238, 297.301 359.366 C 297.173 359.494, 299.971 363.807, 303.519 368.951 C 311.377 380.343, 313.742 386.396, 314.999 398.332 C 315.531 403.374, 315.973 431.012, 315.983 459.750 C 315.993 489.516, 316.382 512, 316.888 512 C 319.094 512, 335.601 506.733, 346.034 502.701 C 411.818 477.276, 466.836 421.187, 493.855 352 C 501.722 331.857, 507.860 307.755, 510.028 288.500 C 510.709 282.450, 511.656 277.072, 512.133 276.550 C 513.261 275.314, 513.269 234.716, 512.141 235.413 C 511.669 235.704, 510.978 232.244, 510.606 227.722 C 508.698 204.525, 499.823 172.883, 488.213 147.879 C 470.037 108.735, 438.226 71.080, 401.990 45.816 C 369.689 23.295, 333.062 8.589, 294 2.456 C 283.933 0.876, 241.501 -0.401, 233 0.620 M 0.423 256.500 C 0.424 268.050, 0.570 272.638, 0.747 266.696 C 0.924 260.753, 0.923 251.303, 0.745 245.696 C 0.567 240.088, 0.422 244.950, 0.423 256.500" stroke="none" fill="#040404" fill-rule="evenodd"/></svg>