<svg xmlns="http://www.w3.org/2000/svg" width="512" height="512" viewBox="0 0 512 512" version="1.1"><path d="M 0.017 362.250 C 0.062 391, 9 419.424, 25.976 444.803 L 32.128 454 74.741 454 L 117.355 454 108.427 449.632 C 73.916 432.746, 52 397.688, 52 359.369 L 52 351 26 351 L 0 351 0.017 362.250 M 165.097 352.617 C 167.325 355.301, 182.095 366.413, 188.500 370.224 C 220.176 389.072, 260.496 393.656, 295.984 382.445 C 305.410 379.468, 315.488 374.991, 323.500 370.224 C 329.905 366.413, 344.675 355.301, 346.903 352.617 C 348.137 351.130, 340.859 351, 256 351 C 171.141 351, 163.863 351.130, 165.097 352.617 M 460 359.369 C 460 397.688, 438.084 432.746, 403.573 449.632 L 394.645 454 437.259 454 L 479.872 454 486.024 444.803 C 503 419.424, 511.938 391, 511.983 362.250 L 512 351 486 351 L 460 351 460 359.369" stroke="none" fill="#ce6348" fill-rule="evenodd"/><path d="M 17.232 81.750 C 5.021 105.117, 0.047 126.497, 0.017 155.750 L 0 173 26 173 L 52 173 52 158.631 C 52 137.017, 54.889 123.305, 62.772 107.500 C 68.711 95.593, 77.060 84.849, 86.832 76.536 L 92.163 72 57.246 72 L 22.328 72 17.232 81.750 M 425.168 76.536 C 434.940 84.849, 443.289 95.593, 449.228 107.500 C 457.111 123.305, 460 137.017, 460 158.631 L 460 173 486 173 L 512 173 511.983 155.750 C 511.953 126.497, 506.979 105.117, 494.768 81.750 L 489.672 72 454.754 72 L 419.837 72 425.168 76.536 M 383.732 93.134 C 373.749 94.611, 364.352 101.558, 359.828 110.805 C 356.490 117.629, 356.120 128.623, 358.973 136.221 C 366.595 156.515, 392.863 162.852, 409.843 148.493 C 420.179 139.752, 423.374 124.418, 417.560 111.454 C 411.666 98.309, 398.165 90.998, 383.732 93.134 M 246.500 123.602 C 211.771 126.883, 182.332 140.934, 159.532 165.111 L 152.563 172.500 204.282 172.759 C 232.727 172.901, 279.273 172.901, 307.718 172.759 L 359.437 172.500 352.468 165.111 C 328.498 139.693, 296.515 125.126, 261.500 123.679 C 255.450 123.429, 248.700 123.395, 246.500 123.602" stroke="none" fill="#951fa1" fill-rule="evenodd"/><path d="M 33.856 455.732 C 34.378 456.707, 39.237 461.907, 44.653 467.288 C 68.499 490.978, 96.195 505.028, 129.964 510.565 C 142.565 512.632, 369.435 512.632, 382.036 510.565 C 415.805 505.028, 443.501 490.978, 467.347 467.288 C 472.763 461.907, 477.622 456.707, 478.144 455.732 C 479.046 454.045, 476.968 453.975, 435.296 454.282 C 392.227 454.599, 391.367 454.645, 383.500 457.037 L 375.500 459.469 256 459.469 L 136.500 459.469 128.500 457.037 C 120.633 454.645, 119.773 454.599, 76.704 454.282 C 35.032 453.975, 32.954 454.045, 33.856 455.732" stroke="none" fill="#df993d" fill-rule="evenodd"/><path d="M 129 1.520 C 95.995 7.138, 68.159 21.360, 44.852 44.514 C 39.546 49.785, 32.420 58.013, 29.015 62.799 L 22.826 71.500 57.464 71.763 L 92.102 72.026 96.301 69.145 C 107.025 61.786, 121.765 55.923, 135.609 53.509 C 148.549 51.252, 363.451 51.252, 376.391 53.509 C 390.235 55.923, 404.975 61.786, 415.699 69.145 L 419.898 72.026 454.536 71.763 L 489.174 71.500 482.985 62.799 C 479.580 58.013, 472.454 49.785, 467.148 44.514 C 443.511 21.032, 415.697 6.954, 382.036 1.435 C 370.109 -0.521, 140.538 -0.443, 129 1.520" stroke="none" fill="#8222b3" fill-rule="evenodd"/><path d="M 0 262 L 0 351 26 351 L 52 351 52 262 L 52 173 26 173 L 0 173 0 262 M 148.911 177.750 C 124.325 210.966, 116.943 256.060, 129.555 295.984 C 135.461 314.680, 145.448 331.809, 158.861 346.250 L 163.274 351 256 351 L 348.726 351 353.139 346.250 C 376.354 321.257, 388.306 290.586, 388.306 256 C 388.306 226.688, 379.819 200.353, 363.089 177.750 L 359.573 173 256 173 L 152.427 173 148.911 177.750 M 460 262 L 460 351 486 351 L 512 351 512 262 L 512 173 486 173 L 460 173 460 262 M 238.365 177.493 C 223.285 180.773, 211.648 187.365, 199.507 199.507 C 182.897 216.116, 176.035 232.633, 176.035 256 C 176.035 279.367, 182.897 295.884, 199.507 312.493 C 216.116 329.103, 232.633 335.965, 256 335.965 C 279.367 335.965, 295.884 329.103, 312.493 312.493 C 329.103 295.884, 335.965 279.367, 335.965 256 C 335.965 232.633, 329.103 216.116, 312.493 199.507 C 300.175 187.189, 288.670 180.733, 273.186 177.452 C 264.888 175.693, 246.542 175.715, 238.365 177.493" stroke="none" fill="#be3269" fill-rule="evenodd"/></svg>