<svg xmlns="http://www.w3.org/2000/svg" width="256" height="256" viewBox="0 0 256 256" version="1.1"><path d="M 158.335 31.603 C 142.414 34.741, 129.201 41.895, 116.970 54 C 107.914 62.962, 102.301 71.945, 99.970 81.204 C 98.812 85.803, 98.716 85.892, 95.643 85.204 C 93.914 84.817, 85.750 84.516, 77.500 84.535 C 60.250 84.574, 54.156 85.823, 41.306 91.948 C 20.996 101.630, 5.844 118.834, 1.537 137.103 C -0.427 145.435, -0.408 158.625, 1.579 166.356 C 4.107 176.194, 10.623 187.376, 18.250 194.966 C 21.962 198.661, 25 202.245, 25 202.931 C 25 203.618, 24.042 204.955, 22.871 205.903 C 21.370 207.119, 20.597 209.134, 20.251 212.740 C 19.610 219.415, 22.237 223.445, 28.300 225.087 C 32.817 226.311, 59.101 225.863, 62.304 224.508 C 63.605 223.958, 64.023 222.874, 63.804 220.622 L 63.500 217.500 49 217.802 C 28.160 218.235, 24.630 216.602, 30.921 209.437 C 36.003 203.649, 35.340 201.403, 25.421 190.801 C 15.856 180.576, 11.562 173.140, 9.438 163.122 C 6.607 149.764, 8.137 139.240, 14.737 126.682 C 23.073 110.818, 41.637 97.784, 61.992 93.502 C 70.396 91.734, 87.246 91.529, 93.557 93.119 L 98 94.237 98 100.069 C 98 103.277, 98.487 108.175, 99.083 110.953 C 99.968 115.078, 100.625 116.119, 102.668 116.631 C 107.135 117.753, 108.358 115.306, 106.938 108.089 C 105.089 98.691, 106.191 88.025, 110.042 78.043 C 112.977 70.435, 114.169 68.717, 121.903 60.942 C 132.056 50.735, 141.048 45.186, 153.615 41.375 C 161.368 39.023, 164.284 38.671, 176.500 38.610 C 188.223 38.552, 191.792 38.912, 198.443 40.820 C 211.356 44.526, 221.352 50.321, 230.627 59.477 C 245.574 74.233, 250.623 89.963, 246.562 109.122 C 244.410 119.273, 239.985 126.934, 230.483 136.960 C 224.293 143.493, 222 146.617, 222 148.522 C 222 151.697, 223.683 155.050, 226.159 156.807 C 228.654 158.578, 228.480 161.673, 225.805 163.104 C 222.650 164.793, 198.034 163.606, 185 161.136 C 153.405 155.151, 133.746 146.218, 119.432 131.344 C 112.245 123.876, 110.213 122.834, 108.011 125.487 C 105.895 128.036, 107.673 131.313, 115.215 138.763 C 123.370 146.819, 128.699 150.474, 140.750 156.277 C 145.287 158.462, 149 160.851, 149 161.587 C 149 164.184, 144.670 174.552, 141.873 178.650 C 140.316 180.933, 135.770 185.792, 131.771 189.448 C 120.763 199.512, 99.988 209.053, 80.500 212.995 C 71.742 214.766, 68.943 217.829, 72.851 221.365 C 74.585 222.935, 75.225 222.916, 82.940 221.073 C 102.496 216.402, 120.756 208.676, 132.176 200.239 C 143.745 191.693, 154.687 176.517, 156.588 166.381 L 157.189 163.180 164.250 165.136 C 188.695 171.911, 221.929 174.531, 230.241 170.340 C 234.671 168.106, 236.321 164.697, 235.767 158.927 C 235.415 155.266, 234.697 153.476, 233.141 152.386 C 231.964 151.562, 231.002 150.350, 231.004 149.693 C 231.007 149.037, 234.109 145.233, 237.898 141.241 C 245.567 133.160, 252.409 121.217, 254.587 112.112 C 256.424 104.428, 256.331 90.974, 254.385 83.064 C 249.296 62.376, 231.251 43.800, 207.673 34.979 C 194.886 30.195, 173.058 28.701, 158.335 31.603 M 178.750 68.080 C 177.456 68.834, 177 70.390, 177 74.050 L 177 79 164.622 79 C 150.744 79, 148.688 79.825, 150.832 84.530 L 151.957 87 173.109 87 L 194.262 87 193.688 90.535 C 192.495 97.889, 183.643 112.949, 180.500 112.971 C 179.950 112.975, 177.925 110.760, 176 108.049 C 172.206 102.705, 170.673 101.651, 167.952 102.515 C 163.917 103.796, 165.059 108.580, 171.020 115.370 L 174.002 118.767 168.751 120.798 C 165.863 121.915, 161.968 123.095, 160.095 123.420 C 154.275 124.432, 152.062 128.146, 155.553 131.044 C 157.762 132.877, 167.410 130.936, 174.828 127.167 L 180.635 124.216 187.772 127.660 C 193.034 130.198, 196.432 131.155, 200.705 131.301 L 206.500 131.500 206.809 128.308 C 207.099 125.313, 206.852 125.043, 202.809 123.939 C 193.484 121.392, 188.996 119.803, 188.399 118.837 C 188.056 118.282, 189.105 116.404, 190.731 114.664 C 195.918 109.110, 200.672 99.249, 202.499 90.250 C 203.054 87.515, 203.602 87, 205.957 87 C 209.332 87, 211.270 84.932, 210.827 81.805 C 210.508 79.553, 210.206 79.494, 197.750 79.220 L 185 78.940 185 74.542 C 185 71.876, 184.381 69.524, 183.429 68.571 C 181.607 66.750, 181.121 66.699, 178.750 68.080 M 75.262 121.250 C 73.769 123.147, 53 178.679, 53 180.772 C 53 183.069, 54.878 185, 57.111 185 C 58.719 185, 61.336 180.679, 63.923 173.750 L 64.950 171 79.341 171 L 93.732 171 95.879 176.888 C 97.060 180.127, 98.674 183.314, 99.465 183.971 C 101.303 185.497, 104.728 184.432, 105.466 182.106 C 106.036 180.310, 86.250 126.590, 83.421 122.250 C 81.790 119.748, 76.913 119.151, 75.262 121.250 M 78.562 134.639 C 78.157 135.662, 75.879 141.675, 73.500 148 C 71.121 154.325, 68.863 160.287, 68.481 161.250 C 67.844 162.853, 68.717 163, 78.893 163 C 85.002 163, 90 162.615, 90 162.144 C 90 161.673, 87.592 154.873, 84.650 147.033 C 80.736 136.605, 79.102 133.277, 78.562 134.639" stroke="none" fill="#d40404" fill-rule="evenodd"/></svg>