<svg xmlns="http://www.w3.org/2000/svg" width="256" height="256" viewBox="0 0 256 256" version="1.1"><path d="M 120.420 1.886 C 113.943 5.835, 114 5.299, 114 62.401 L 114 114 62.401 114 C 5.299 114, 5.835 113.943, 1.886 120.420 C -0.562 124.434, -0.562 131.566, 1.886 135.580 C 5.835 142.057, 5.299 142, 62.401 142 L 114 142 114 193.599 C 114 250.701, 113.943 250.165, 120.420 254.114 C 124.434 256.562, 131.566 256.562, 135.580 254.114 C 142.057 250.165, 142 250.701, 142 193.599 L 142 142 193.599 142 C 251.416 142, 249.975 142.169, 254.585 134.866 C 256.251 132.227, 257 129.586, 257 126.353 C 257 123.776, 256.702 121.965, 256.337 122.330 C 255.972 122.694, 254.900 121.721, 253.955 120.166 C 250.192 113.978, 250.407 114, 193.599 114 L 142 114 142 62.401 C 142 5.299, 142.057 5.835, 135.580 1.886 C 131.566 -0.562, 124.434 -0.562, 120.420 1.886 M 0.300 128 C 0.300 131.025, 0.487 132.262, 0.716 130.750 C 0.945 129.238, 0.945 126.763, 0.716 125.250 C 0.487 123.737, 0.300 124.975, 0.300 128" stroke="none" fill="#fc3404" fill-rule="evenodd"/></svg>