<svg xmlns="http://www.w3.org/2000/svg" width="512" height="512" viewBox="0 0 512 512" version="1.1"><path d="M 223.536 33.087 C 166.867 40.825, 116.092 72.456, 84.822 119.500 C 72.334 138.288, 60.093 167.100, 58.481 181.500 C 56.977 194.935, 62.234 209.281, 72.365 219.387 C 83.349 230.345, 97.423 236, 113.713 236 C 128.807 236, 139.646 231.471, 149.165 221.187 C 155.203 214.665, 157.337 210.785, 162.851 196.312 C 172.110 172.010, 191.642 152.121, 215.214 142.992 C 236.029 134.931, 260.970 134.931, 281.784 142.992 C 297.838 149.209, 313.977 161.960, 323.579 176.012 L 328.355 183.004 313.742 197.822 C 303.938 207.763, 298.915 213.604, 298.481 215.570 C 298.124 217.181, 297.641 219.111, 297.407 219.857 C 296.724 222.030, 298.819 228.500, 301.175 231.495 C 302.367 233.011, 305.178 235.085, 307.421 236.104 C 311.260 237.847, 315.421 237.957, 378 237.972 C 418.629 237.982, 445.879 237.606, 448.044 237.004 C 452.065 235.887, 457.360 230.872, 458.939 226.685 C 459.649 224.801, 460 201.454, 460 156.092 L 460 88.315 457.697 83.960 C 456.123 80.984, 454.016 78.877, 451.040 77.303 C 441.530 72.274, 437.302 74.298, 418.696 92.788 L 403.892 107.500 401.856 105 C 375.209 72.284, 337.746 48.159, 297.680 37.915 C 280.956 33.640, 273.830 32.789, 252 32.460 C 240.175 32.282, 227.366 32.564, 223.536 33.087 M 63.914 274.956 C 59.326 276.346, 56.145 279.068, 54.049 283.399 C 52.045 287.538, 52 289.132, 52 355.658 L 52 423.685 54.303 428.040 C 55.877 431.016, 57.984 433.123, 60.960 434.697 C 70.478 439.730, 74.707 437.703, 93.265 419.212 L 108.031 404.500 112.248 409.500 C 139.437 441.735, 175.321 464.230, 215.857 474.451 C 234.241 479.086, 246.496 480.297, 269 479.700 C 285.793 479.254, 291.760 478.682, 302 476.537 C 353.889 465.665, 398.414 435.774, 427.178 392.500 C 439.666 373.712, 451.907 344.900, 453.519 330.500 C 455.023 317.065, 449.766 302.719, 439.635 292.613 C 428.651 281.655, 414.577 276, 398.287 276 C 384.102 276, 374.520 279.558, 365.352 288.229 C 358.247 294.948, 354.926 300.423, 350.045 313.462 C 342.570 333.434, 330.677 348.737, 313.919 359.946 C 289.566 376.236, 257.768 379.679, 230.214 369.008 C 214.296 362.843, 197.943 349.923, 188.421 335.988 L 183.645 328.996 198.258 314.178 C 208.062 304.237, 213.085 298.396, 213.519 296.430 C 213.876 294.819, 214.359 292.889, 214.593 292.143 C 215.276 289.970, 213.181 283.500, 210.825 280.505 C 209.633 278.989, 206.822 276.915, 204.579 275.896 C 200.734 274.150, 196.664 274.048, 133.500 274.108 C 96.650 274.143, 65.336 274.525, 63.914 274.956" stroke="none" fill="#28a4fc" fill-rule="evenodd"/></svg>